<svg xmlns="http://www.w3.org/2000/svg" xmlns:xlink="http://www.w3.org/1999/xlink" xmlns:inkscape="http://www.inkscape.org/namespaces/inkscape" version="1.1" width="255.52" height="109.47" viewBox="0 0 255.52 109.47">
<defs>
<path id="font_0_3" d="M.375 .6136017C.3809967 .63760378 .38398744 .6476135 .40299989 .65060427 .4119873 .6516113 .44400025 .6516113 .46398927 .6516113 .5349884 .6516113 .6459961 .6516113 .6459961 .5525818 .6459961 .51856997 .6299896 .44955445 .59098818 .41055299 .5649872 .38453675 .5119934 .35253907 .42199708 .35253907H.30999757L.375 .6136017M.5189972 .33953858C.6199951 .3615265 .7389984 .43154908 .7389984 .5325775 .7389984 .61860659 .6489868 .6826172 .5179901 .6826172H.23298645C.21299744 .6826172 .20399475 .6826172 .20399475 .6626129 .20399475 .6516113 .21299744 .6516113 .23199463 .6516113 .23399353 .6516113 .25299073 .6516113 .269989 .6496124 .28799439 .6476135 .29699708 .64660647 .29699708 .63360598 .29699708 .62960818 .29599 .6266022 .29299928 .6145935L.15899658 .07752991C.14898682 .038528444 .14698792 .030532837 .067993167 .030532837 .049987794 .030532837 .040985109 .030532837 .040985109 .010528564 .040985109-.00047302247 .052993776-.00047302247 .054992677-.00047302247 .08299255-.00047302247 .15299988 .002532959 .18099976 .002532959 .20899964 .002532959 .27999879-.00047302247 .30799867-.00047302247 .31599427-.00047302247 .32798768-.00047302247 .32798768 .01953125 .32798768 .030532837 .31900025 .030532837 .2999878 .030532837 .2630005 .030532837 .23498535 .030532837 .23498535 .048538209 .23498535 .054534913 .23699951 .059524537 .23799134 .0655365L.3039856 .3305359H.4229889C.5139923 .3305359 .5319977 .27453614 .5319977 .23953247 .5319977 .22453308 .5239868 .19352722 .5179901 .17053223 .5109863 .14253235 .5019989 .105529788 .5019989 .08552551 .5019989-.022460938 .621994-.022460938 .6349945-.022460938 .7200012-.022460938 .7549896 .07853699 .7549896 .0925293 .7549896 .104537967 .74398806 .104537967 .7429962 .104537967 .73399356 .104537967 .7319946 .09753418 .7299957 .090530399 .7049866 .016525269 .6619873-.00047302247 .6389923-.00047302247 .60598757-.00047302247 .598999 .021530152 .598999 .060531618 .598999 .091537479 .6049957 .14253235 .60899356 .17453003 .61099246 .1885376 .61299136 .20753479 .61299136 .2215271 .61299136 .2985382 .54599 .3295288 .5189972 .33953858Z"/>
<path id="font_1_3" d="M.24899292 .10601807C.23899842 .072021488 .20599365 .018234253 .15499878 .018234253 .1519928 .018234253 .12199402 .018234253 .100997928 .03215027 .14199829 .04508972 .14498902 .08100891 .14498902 .087020877 .14498902 .10900879 .12799073 .12402344 .10499573 .12402344 .07699585 .12402344 .04798889 .10002136 .04798889 .0630188 .04798889 .01322937 .10398865-.009765625 .15299988-.009765625 .19898987-.009765625 .23999024 .019226075 .2649994 .061019899 .2889862 .008224487 .34399415-.009765625 .38398744-.009765625 .49899293-.009765625 .55999758 .11502075 .55999758 .14305115 .55999758 .15608216 .5469971 .15608216 .5439911 .15608216 .5299988 .15608216 .5289917 .15107727 .5249939 .13905335 .5039978 .07002258 .44400025 .018234253 .3880005 .018234253 .34799195 .018234253 .32699586 .04508972 .32699586 .08302307 .32699586 .10900879 .35099793 .20018006 .3789978 .31140138 .39898683 .38841249 .44400025 .4133911 .47698976 .4133911 .47898866 .4133911 .5099945 .4133911 .5309906 .39941407 .49899293 .39041139 .4869995 .3624115 .4869995 .34440614 .4869995 .32240296 .5039978 .30740357 .5269928 .30740357 .5499878 .30740357 .58299258 .32640077 .58299258 .3684082 .58299258 .4243927 .5189972 .44140626 .47898866 .44140626 .42900086 .44140626 .3889923 .4084015 .36698915 .3704071 .34899903 .4113922 .30299378 .44140626 .24699402 .44140626 .1349945 .44140626 .070999149 .31840516 .070999149 .2883606 .070999149 .27534486 .084991458 .27534486 .08799744 .27534486 .100997928 .27534486 .101989749 .27934266 .10699463 .29237367 .13198853 .3704071 .19499207 .4133911 .24398804 .4133911 .2769928 .4133911 .3039856 .395401 .3039856 .3474121 .3039856 .32740785 .2919922 .27734376 .2829895 .24327088L.24899292 .10601807Z"/>
<path id="font_2_27" d="M.82699587 0V.04699707H.7299957L.47399903 .6722412C.46299745 .6982422 .45098878 .6982422 .43399049 .6982422 .4059906 .6982422 .4019928 .6902313 .394989 .6722412L.14698792 .07002258C.14099121 .055007936 .13798523 .04699707 .06199646 .04699707H.040985109V0L.1579895 .0029907227C.19699097 .0029907227 .25299073 .0029907227 .2899933 0V.04699707C.2899933 .04699707 .20098877 .04699707 .20098877 .060012819L.20498657 .07203674 .25498963 .19322205H.522995L.58299258 .04699707H.48799134V0C.526001 .0029907227 .62098696 .0029907227 .6639862 .0029907227 .70399478 .0029907227 .7919922 .0029907227 .82699587 0M.5029907 .24023438H.2749939L.3889923 .51823428 .5029907 .24023438Z"/>
<path id="font_0_2" d="M.37399293 .6056366C.3829956 .6416168 .38598634 .6516113 .46499635 .6516113 .4889984 .6516113 .49699403 .6516113 .49699403 .6706085 .49699403 .6826172 .48599244 .6826172 .48199464 .6826172 .45298768 .6826172 .3789978 .6796112 .34999085 .6796112 .31999208 .6796112 .24699402 .6826172 .21699524 .6826172 .20999146 .6826172 .19699097 .6826172 .19699097 .6626129 .19699097 .6516113 .20599365 .6516113 .22499085 .6516113 .2669983 .6516113 .2939911 .6516113 .2939911 .63261416 .2939911 .6276245 .2939911 .6256256 .2919922 .6166229L.15699768 .07795715C.147995 .040985109 .14498902 .0309906 .06599426 .0309906 .042999269 .0309906 .033996583 .0309906 .033996583 .010986328 .033996583 0 .04598999 0 .04899597 0 .07798767 0 .15098572 .0029907227 .17999268 .0029907227 .20999146 .0029907227 .28399659 0 .31399537 0 .32199098 0 .33399964 0 .33399964 .018997193 .33399964 .0309906 .32598878 .0309906 .3039856 .0309906 .28599549 .0309906 .2809906 .0309906 .26098634 .032989503 .23999024 .034988405 .23599243 .038986207 .23599243 .049987794 .23599243 .05796814 .23799134 .065963748 .23999024 .07296753L.37399293 .6056366Z"/>
<path id="font_0_1" d="M.20298767 .0009918213C.20298767 .066986087 .17799378 .10598755 .13899231 .10598755 .10598755 .10598755 .085998538 .08099365 .085998538 .052993776 .085998538 .025985718 .10598755 0 .13899231 0 .15098572 0 .1639862 .0039978029 .17399597 .0129852299 .1769867 .01499939 .17799378 .015991211 .1789856 .015991211 .17999268 .015991211 .18099976 .01499939 .18099976 .0009918213 .18099976-.07316589 .1459961-.13328552 .11299133-.16635132 .101989749-.17736817 .101989749-.17936707 .101989749-.18237305 .101989749-.18936157 .10699463-.19335938 .11199951-.19335938 .12298584-.19335938 .20298767-.116256717 .20298767 .0009918213Z"/>
<path id="font_1_1" d="M.20599365 .11984253C.17098999 .06594849 .13899231 .039978029 .07998657 .035995485 .069992069 .034988405 .056991579 .034988405 .056991579 .01499939 .056991579 .0039978029 .06599426 0 .070999149 0 .09700012 0 .12998963 .0039978029 .15699768 .0039978029 .18899536 .0039978029 .22999573 0 .2599945 0 .2649994 0 .27999879 0 .27999879 .021987915 .27999879 .034988405 .2669983 .035995485 .2630005 .035995485 .25498963 .036987306 .21899414 .038986207 .21899414 .06594849 .21899414 .077926639 .22898865 .09489441 .23399353 .103881839L.31399537 .22766114H.59999087L.6239929 .061950685C.6199951 .051971437 .6139984 .035995485 .5549927 .035995485 .54299929 .035995485 .5289917 .035995485 .5289917 .01399231 .5289917 .009994507 .5319977 0 .54499819 0 .57398989 0 .644989 .0039978029 .673996 .0039978029 .69200137 .0039978029 .71499636 .0029907227 .73298647 .0029907227 .7509918 .0019989014 .7719879 0 .7899933 0 .8029938 0 .80999758 .0079956059 .80999758 .020996094 .80999758 .035995485 .7979889 .035995485 .7819977 .035995485 .723999 .035995485 .7220001 .04397583 .71899417 .06793213L.6309967 .6848755C.6279907 .70588687 .6259918 .7128906 .6069946 .7128906 .58799746 .7128906 .58200076 .70388796 .57299807 .6898804L.20599365 .11984253M.33799745 .26367188 .5479889 .5908356 .59498599 .26367188H.33799745Z"/>
<path id="font_2_111" d="M.84199526 .63853457V.6855469L.72898867 .6825409C.68899539 .6825409 .6369934 .6825409 .59799197 .6855469V.63853457C.6069946 .63853457 .6859894 .63853457 .6859894 .62654116 .6859894 .6225586 .68299868 .6175537 .6819916 .614563L.47999574 .16001892 .2669983 .63853457H.36099244V.6855469C.32299806 .6825409 .22698975 .6825409 .18399048 .6825409 .14498902 .6825409 .06098938 .6825409 .025985718 .6855469V.63853457H.117996219L.3939972 .018157959C.4019928 .00016784668 .4059906-.0078125 .43399049-.0078125 .44999696-.0078125 .46299745-.0078125 .47399903 .016159058L.73999026 .6165619C.74598696 .6295471 .75 .63853457 .82299807 .63853457H.84199526Z"/>
<path id="font_0_4" d="M.6349945 .5776062C.644989 .61860659 .6629944 .64860537 .7429962 .6516113 .7480011 .6516113 .7599945 .65260317 .7599945 .6716156 .7599945 .6726074 .7599945 .6826172 .746994 .6826172 .71398928 .6826172 .67900088 .6796112 .644989 .6796112 .61099246 .6796112 .57398989 .6826172 .54100039 .6826172 .5349884 .6826172 .522995 .6826172 .522995 .6626129 .522995 .6516113 .5329895 .6516113 .54100039 .6516113 .59799197 .65060427 .60899356 .62960818 .60899356 .607605 .60899356 .604599 .6069946 .5895996 .60598757 .5866089L.5159912 .22955323C.48199464 .09553528 .36698915 .008529663 .2669983 .008529663 .19898987 .008529663 .14498902 .05253601 .14498902 .1385498 .14498902 .1405487 .14498902 .17254639 .1559906 .21655274L.25299073 .6056061C.2619934 .64160159 .2639923 .6516113 .33699037 .6516113 .36299134 .6516113 .37098695 .6516113 .37098695 .6716156 .37098695 .6826172 .3600006 .6826172 .35699464 .6826172 .32899476 .6826172 .25698854 .6796112 .22898865 .6796112 .19999695 .6796112 .1289978 .6826172 .099990848 .6826172 .09199524 .6826172 .08099365 .6826172 .08099365 .6626129 .08099365 .6516113 .08999634 .6516113 .10899353 .6516113 .11099243 .6516113 .12998963 .6516113 .14698792 .6496124 .16499329 .6476135 .17399597 .64660647 .17399597 .63360598 .17399597 .62760928 .16299439 .5856018 .15699768 .56259158L.1349945 .47459413C.12599182 .4355774 .07798767 .24656677 .07398987 .22755432 .066986087 .19955445 .066986087 .18455506 .066986087 .16955567 .066986087 .047531129 .1579895-.022460938 .2630005-.022460938 .3889923-.022460938 .5130005 .090545658 .54599 .2225647L.6349945 .5776062Z"/>
<path id="font_1_2" d="M.71499636 .5637207C.7519989 .61764529 .7839966 .64260867 .83799746 .64660647 .84999087 .6476135 .86099246 .64860537 .86099246 .6686096 .86099246 .6716156 .85899356 .6826172 .8470001 .6826172 .82299807 .6826172 .7919922 .6786041 .7669983 .6786041 .7350006 .6786041 .69299319 .6826172 .6629944 .6826172 .6539917 .6826172 .6429901 .6796112 .6429901 .660614 .6429901 .6476135 .6569977 .64660647 .6609955 .64660647 .69299319 .64460757 .70199587 .6326294 .70199587 .61764529 .70199587 .6036682 .69499209 .5936737 .6839905 .57769778L.35598756 .09434509 .2649994 .60466006C.2630005 .61364749 .2630005 .61564639 .2630005 .61964419 .2630005 .64660647 .31900025 .64660647 .32598878 .64660647 .34298707 .64660647 .35598756 .64660647 .35598756 .6686096 .35598756 .6696167 .35499574 .6826172 .33898927 .6826172 .30999757 .6826172 .23899842 .6786041 .20999146 .6786041 .18499756 .6786041 .12399292 .6826172 .09899902 .6826172 .08999634 .6826172 .07899475 .6796112 .07899475 .660614 .07899475 .64660647 .09298706 .64660647 .10398865 .64660647 .1599884 .64660647 .16099549 .64060977 .1659851 .61465457L.2749939 .007446289C.2789917-.013534546 .27999879-.01953125 .29899598-.01953125 .31799317-.01953125 .32299806-.012542725 .33299256 .002456665L.71499636 .5637207Z"/>
</defs>
<path transform="matrix(1,0,0,-1,.1989975,97.16499)" stroke-width=".3985" stroke-linecap="butt" stroke-miterlimit="10" stroke-linejoin="miter" fill="none" stroke="#000000" d="M0 0H22.39395M34.29965 0H56.69362 78.09537M91.98547 0H113.38724M0 0V28.3468L12.47261 28.34679M44.221 28.34679 56.69362 28.3468 73.1347 28.34679M96.94614 28.34679 113.38724 28.3468V0M0 28.3468V70.867L44.78789 70.86699M68.59933 70.86699 113.38724 70.867V28.3468"/>
<path transform="matrix(1,0,0,-1,.1989975,97.16499)" stroke-width=".3985" stroke-linecap="butt" stroke-miterlimit="10" stroke-linejoin="miter" fill="none" stroke="#000000" d="M30.31125 0H34.29965M26.38235 0H22.39395"/>
<path transform="matrix(1,0,0,-1,.1989975,97.16499)" stroke-width=".797" stroke-linecap="butt" stroke-miterlimit="10" stroke-linejoin="miter" fill="none" stroke="#000000" d="M30.31125 5.95285V-5.95285M26.38235 11.90572V-11.90572"/>
<path transform="matrix(1,0,0,-1,.1989975,97.16499)" stroke-width=".797" stroke-linecap="butt" stroke-miterlimit="10" stroke-linejoin="miter" fill="none" stroke="#000000" d="M78.09537 0 89.20749 6.94505"/>
<path transform="matrix(1,0,0,-1,.1989975,97.16499)" stroke-width=".797" stroke-linecap="butt" stroke-linejoin="bevel" fill="none" stroke="#000000" d="M78.09537 8.33403C81.07248 8.33403 83.82433 6.74527 85.31287 4.167 86.01799 2.94568 86.3931 1.5813 86.42683 .20366"/>
<path transform="matrix(-.03792,.99924,.99924,.03792,86.2437,96.90949)" d="M3.1083 0C1.81317 .25902-.51805 .77707-2.0722 1.94269-.77707 .51805-.77707-.51805-2.0722-1.94269-.51805-.77707 1.81317-.25902 3.1083 0Z"/>
<path transform="matrix(1,0,0,-1,.1989975,97.16499)" stroke-width=".797" stroke-linecap="butt" stroke-miterlimit="10" stroke-linejoin="miter" fill="none" stroke="#000000" d="M12.47261 34.29964H44.220994V22.39394H12.47261Z"/>
<use data-text="R" xlink:href="#font_0_3" transform="matrix(9.9626,0,0,-9.9626,22.254998,59.049997)"/>
<use data-text="x" xlink:href="#font_1_3" transform="matrix(6.9738,0,0,-6.9738,29.82,60.545)"/>
<path transform="matrix(1,0,0,-1,.1989975,97.16499)" stroke-width=".3985" stroke-linecap="butt" stroke-miterlimit="10" stroke-linejoin="miter" fill="none" stroke="#000000" d="M73.1347 28.34679H74.32535M95.7555 28.34679H96.94614"/>
<path transform="matrix(1,0,0,-1,.1989975,97.16499)" stroke-width=".797" stroke-linecap="butt" stroke-miterlimit="10" stroke-linejoin="miter" fill="none" stroke="#000000" d="M95.7555 28.34679C95.7555 34.26463 90.95827 39.06186 85.04042 39.06186 79.12257 39.06186 74.32535 34.26463 74.32535 28.34679 74.32535 22.42894 79.12257 17.63171 85.04042 17.63171 90.95827 17.63171 95.7555 22.42894 95.7555 28.34679ZM85.04042 28.34679"/>
<path transform="matrix(1,0,0,-1,.1989975,97.16499)" stroke-width=".3985" stroke-linecap="butt" stroke-miterlimit="10" stroke-linejoin="miter" fill="none" stroke="#000000" d="M73.1347 16.44107 94.41006 37.71643"/>
<path transform="matrix(.7071,-.7071,-.7071,-.7071,94.609058,59.448564)" d="M3.58653 0C2.52383 .19925 .797 .797-.3985 1.49438V-1.49438C.797-.797 2.52383-.19925 3.58653 0"/>
<use data-text="A" xlink:href="#font_2_27" transform="matrix(9.9626,0,0,-9.9626,80.911,72.295)"/>
<use data-text="I" xlink:href="#font_0_2" transform="matrix(9.9626,0,0,-9.9626,73.41799,52.500997)"/>
<use data-text="," xlink:href="#font_0_1" transform="matrix(9.9626,0,0,-9.9626,78.56866,52.500997)"/>
<use data-text="R" xlink:href="#font_0_3" transform="matrix(9.9626,0,0,-9.9626,82.99205,52.500997)"/>
<use data-text="A" xlink:href="#font_1_1" transform="matrix(6.9738,0,0,-6.9738,90.57199,53.995996)"/>
<path transform="matrix(1,0,0,-1,.1989975,97.16499)" stroke-width=".3985" stroke-linecap="butt" stroke-miterlimit="10" stroke-linejoin="miter" fill="none" stroke="#000000" d="M44.78789 70.86699H45.97855M67.40868 70.86699H68.59933"/>
<path transform="matrix(1,0,0,-1,.1989975,97.16499)" stroke-width=".797" stroke-linecap="butt" stroke-miterlimit="10" stroke-linejoin="miter" fill="none" stroke="#000000" d="M67.40868 70.86699C67.40868 76.78484 62.61145 81.58206 56.69362 81.58206 50.77577 81.58206 45.97855 76.78484 45.97855 70.86699 45.97855 64.94916 50.77577 60.15193 56.69362 60.15193 62.61145 60.15193 67.40868 64.94916 67.40868 70.86699ZM56.69362 70.86699"/>
<path transform="matrix(1,0,0,-1,.1989975,97.16499)" stroke-width=".3985" stroke-linecap="butt" stroke-miterlimit="10" stroke-linejoin="miter" fill="none" stroke="#000000" d="M44.78789 58.96127 66.06326 80.23665"/>
<path transform="matrix(.7071,-.7071,-.7071,-.7071,66.26226,16.928345)" d="M3.58653 0C2.52383 .19925 .797 .797-.3985 1.49438V-1.49438C.797-.797 2.52383-.19925 3.58653 0"/>
<use data-text="V" xlink:href="#font_2_111" transform="matrix(9.9626,0,0,-9.9626,52.564004,29.675)"/>
<use data-text="U" xlink:href="#font_0_4" transform="matrix(9.9626,0,0,-9.9626,44.045999,9.980999)"/>
<use data-text="," xlink:href="#font_0_1" transform="matrix(9.9626,0,0,-9.9626,50.820566,9.980999)"/>
<use data-text="R" xlink:href="#font_0_3" transform="matrix(9.9626,0,0,-9.9626,55.233999,9.980999)"/>
<use data-text="V" xlink:href="#font_1_2" transform="matrix(6.9738,0,0,-6.9738,62.82,11.476)"/>
<path transform="matrix(1,0,0,-1,.1989975,97.16499)" stroke-width=".3985" stroke-linecap="butt" stroke-miterlimit="10" stroke-linejoin="miter" fill="none" stroke="#000000" d="M141.73404 0H164.12799M176.03369 0H198.42766 219.8294M233.71952 0H255.12128M141.73404 0V28.3468L154.20664 28.34679M185.95503 28.34679 198.42766 28.3468 214.86875 28.34679M238.68018 28.34679 255.12128 28.3468V0M141.73404 28.3468V70.867L158.17513 70.86699M181.98656 70.86699 198.42766 70.867V28.3468"/>
<path transform="matrix(1,0,0,-1,.1989975,97.16499)" stroke-width=".3985" stroke-linecap="butt" stroke-miterlimit="10" stroke-linejoin="miter" fill="none" stroke="#000000" d="M172.04529 0H176.03369M168.1164 0H164.12799"/>
<path transform="matrix(1,0,0,-1,.1989975,97.16499)" stroke-width=".797" stroke-linecap="butt" stroke-miterlimit="10" stroke-linejoin="miter" fill="none" stroke="#000000" d="M172.04529 5.95285V-5.95285M168.1164 11.90572V-11.90572"/>
<path transform="matrix(1,0,0,-1,.1989975,97.16499)" stroke-width=".797" stroke-linecap="butt" stroke-miterlimit="10" stroke-linejoin="miter" fill="none" stroke="#000000" d="M219.8294 0 230.94152 6.94505"/>
<path transform="matrix(1,0,0,-1,.1989975,97.16499)" stroke-width=".797" stroke-linecap="butt" stroke-linejoin="bevel" fill="none" stroke="#000000" d="M219.8294 8.33403C222.80652 8.33403 225.55837 6.74527 227.0469 4.167 227.75202 2.94568 228.12712 1.5813 228.16086 .20366"/>
<path transform="matrix(-.03792,.99924,.99924,.03792,227.97772,96.90949)" d="M3.1083 0C1.81317 .25902-.51805 .77707-2.0722 1.94269-.77707 .51805-.77707-.51805-2.0722-1.94269-.51805-.77707 1.81317-.25902 3.1083 0Z"/>
<path transform="matrix(1,0,0,-1,.1989975,97.16499)" stroke-width=".797" stroke-linecap="butt" stroke-miterlimit="10" stroke-linejoin="miter" fill="none" stroke="#000000" d="M154.20664 34.29964H185.95502V22.39394H154.20664Z"/>
<use data-text="R" xlink:href="#font_0_3" transform="matrix(9.9626,0,0,-9.9626,163.98999,59.049997)"/>
<use data-text="x" xlink:href="#font_1_3" transform="matrix(6.9738,0,0,-6.9738,171.555,60.545)"/>
<path transform="matrix(1,0,0,-1,.1989975,97.16499)" stroke-width=".3985" stroke-linecap="butt" stroke-miterlimit="10" stroke-linejoin="miter" fill="none" stroke="#000000" d="M214.86875 28.34679H216.05939M237.48954 28.34679H238.68018"/>
<path transform="matrix(1,0,0,-1,.1989975,97.16499)" stroke-width=".797" stroke-linecap="butt" stroke-miterlimit="10" stroke-linejoin="miter" fill="none" stroke="#000000" d="M237.48954 28.34679C237.48954 34.26463 232.69229 39.06186 226.77446 39.06186 220.85662 39.06186 216.05939 34.26463 216.05939 28.34679 216.05939 22.42894 220.85662 17.63171 226.77446 17.63171 232.69229 17.63171 237.48954 22.42894 237.48954 28.34679ZM226.77446 28.34679"/>
<path transform="matrix(1,0,0,-1,.1989975,97.16499)" stroke-width=".3985" stroke-linecap="butt" stroke-miterlimit="10" stroke-linejoin="miter" fill="none" stroke="#000000" d="M214.86875 16.44107 236.1441 37.71643"/>
<path transform="matrix(.7071,-.7071,-.7071,-.7071,236.34311,59.448564)" d="M3.58653 0C2.52383 .19925 .797 .797-.3985 1.49438V-1.49438C.797-.797 2.52383-.19925 3.58653 0"/>
<use data-text="A" xlink:href="#font_2_27" transform="matrix(9.9626,0,0,-9.9626,222.64499,72.295)"/>
<use data-text="I" xlink:href="#font_0_2" transform="matrix(9.9626,0,0,-9.9626,215.15201,52.500997)"/>
<use data-text="," xlink:href="#font_0_1" transform="matrix(9.9626,0,0,-9.9626,220.30268,52.500997)"/>
<use data-text="R" xlink:href="#font_0_3" transform="matrix(9.9626,0,0,-9.9626,224.72606,52.500997)"/>
<use data-text="A" xlink:href="#font_1_1" transform="matrix(6.9738,0,0,-6.9738,232.306,53.995996)"/>
<path transform="matrix(1,0,0,-1,.1989975,97.16499)" stroke-width=".3985" stroke-linecap="butt" stroke-miterlimit="10" stroke-linejoin="miter" fill="none" stroke="#000000" d="M158.17513 70.86699H159.36577M180.7959 70.86699H181.98656"/>
<path transform="matrix(1,0,0,-1,.1989975,97.16499)" stroke-width=".797" stroke-linecap="butt" stroke-miterlimit="10" stroke-linejoin="miter" fill="none" stroke="#000000" d="M180.7959 70.86699C180.7959 76.78484 175.99868 81.58206 170.08084 81.58206 164.163 81.58206 159.36577 76.78484 159.36577 70.86699 159.36577 64.94916 164.163 60.15193 170.08084 60.15193 175.99868 60.15193 180.7959 64.94916 180.7959 70.86699ZM170.08084 70.86699"/>
<path transform="matrix(1,0,0,-1,.1989975,97.16499)" stroke-width=".3985" stroke-linecap="butt" stroke-miterlimit="10" stroke-linejoin="miter" fill="none" stroke="#000000" d="M158.17513 58.96127 179.45049 80.23665"/>
<path transform="matrix(.7071,-.7071,-.7071,-.7071,179.64948,16.928345)" d="M3.58653 0C2.52383 .19925 .797 .797-.3985 1.49438V-1.49438C.797-.797 2.52383-.19925 3.58653 0"/>
<use data-text="V" xlink:href="#font_2_111" transform="matrix(9.9626,0,0,-9.9626,165.95099,29.675)"/>
<use data-text="U" xlink:href="#font_0_4" transform="matrix(9.9626,0,0,-9.9626,157.43399,9.980999)"/>
<use data-text="," xlink:href="#font_0_1" transform="matrix(9.9626,0,0,-9.9626,164.20856,9.980999)"/>
<use data-text="R" xlink:href="#font_0_3" transform="matrix(9.9626,0,0,-9.9626,168.622,9.980999)"/>
<use data-text="V" xlink:href="#font_1_2" transform="matrix(6.9738,0,0,-6.9738,176.20801,11.476)"/>
</svg>
