<svg version="1.1" xmlns="http://www.w3.org/2000/svg" viewBox="0 0 504.01048537268184 399.4918055726914" width="504.01048537268184" height="399.4918055726914">
  <!-- svg-source:excalidraw -->
  
  <defs>
    <style class="style-fonts">
      @font-face {
        font-family: "Virgil";
        src: url("https://excalidraw.com/Virgil.woff2");
      }
      @font-face {
        font-family: "Cascadia";
        src: url("https://excalidraw.com/Cascadia.woff2");
      }
      @font-face {
        font-family: "Assistant";
        src: url("https://excalidraw.com/Assistant-Regular.woff2");
      }
    </style>
    
  </defs>
  <rect x="0" y="0" width="504.01048537268184" height="399.4918055726914" fill="#ffffff"></rect><g stroke-linecap="round"><g transform="translate(74.51527897198139 90.0035106386756) rotate(0 118.5 -30.5)"><path d="M-0.44 -1.06 C38.97 -11.36, 197.83 -50.86, 237.5 -61.01 M1.52 1 C40.73 -9.16, 197.55 -49.12, 236.82 -59.47" stroke="#1e1e1e" stroke-width="2" fill="none"></path></g></g><mask></mask><g stroke-linecap="round"><g transform="translate(31.515278971981388 312.0035106386756) rotate(0 23.5 -113.5)"><path d="M0.15 -0.98 C7.95 -39, 39.12 -189.45, 46.88 -226.99 M-1.23 1.11 C6.39 -36.19, 38.03 -187.23, 45.87 -225.44" stroke="#1e1e1e" stroke-width="2" fill="none"></path></g></g><mask></mask><g stroke-linecap="round"><g transform="translate(463.5152789719814 174.0035106386756) rotate(0 -75.5 -71)"><path d="M0.71 -0.08 C-24.36 -23.53, -125.7 -118.25, -151.04 -141.73 M-0.38 -1.17 C-25.55 -24.91, -126.69 -120.12, -152 -143.71" stroke="#1e1e1e" stroke-width="2" fill="none"></path></g></g><mask></mask><g stroke-linecap="round"><g transform="translate(75.51527897198139 88.00351063867566) rotate(0 141.5 149.99999999999997)"><path d="M-0.67 1.12 C46.41 50.95, 235.89 250.23, 283.18 299.97 M1.17 0.66 C48.05 50.61, 235.47 251.49, 282.33 301.49" stroke="#1971c2" stroke-width="2" fill="none"></path></g><g transform="translate(75.51527897198139 88.00351063867566) rotate(0 141.5 149.99999999999997)"><path d="M260.04 290.17 C270.01 294.67, 276.11 298.55, 282.33 301.49 M260.04 290.17 C265.47 292.29, 272.32 295.41, 282.33 301.49" stroke="#1971c2" stroke-width="2" fill="none"></path></g><g transform="translate(75.51527897198139 88.00351063867566) rotate(0 141.5 149.99999999999997)"><path d="M272.53 278.49 C278.1 287.12, 279.71 295.2, 282.33 301.49 M272.53 278.49 C274.79 283.63, 278.36 289.8, 282.33 301.49" stroke="#1971c2" stroke-width="2" fill="none"></path></g></g><mask></mask><g stroke-linecap="round"><g transform="translate(311.5152789719814 30.003510638675607) rotate(0 -40 168)"><path d="M0.39 -0.87 C-12.98 54.99, -66.16 279.84, -79.4 336.13 M-0.86 1.28 C-14.41 57.27, -66.96 282.12, -80.03 337.74" stroke="#e03131" stroke-width="2" fill="none"></path></g><g transform="translate(311.5152789719814 30.003510638675607) rotate(0 -40 168)"><path d="M-82.99 312.92 C-83.15 323.09, -80.38 332.88, -80.03 337.74 M-82.99 312.92 C-82.14 321.37, -80.34 332.31, -80.03 337.74" stroke="#e03131" stroke-width="2" fill="none"></path></g><g transform="translate(311.5152789719814 30.003510638675607) rotate(0 -40 168)"><path d="M-66.34 316.82 C-72.68 325.6, -76.06 333.95, -80.03 337.74 M-66.34 316.82 C-71.75 323.77, -76.21 333.25, -80.03 337.74" stroke="#e03131" stroke-width="2" fill="none"></path></g></g><mask></mask><g transform="translate(33.245971135886634 70.05209210104152) rotate(0 6.5625 12.5)"><text x="0" y="0" font-family="Virgil, Segoe UI Emoji" font-size="20px" fill="#1e1e1e" text-anchor="start" style="white-space: pre;" direction="ltr" dominant-baseline="text-before-edge">A</text></g><g transform="translate(319.17141610729755 10) rotate(0 7.270833492279053 12.5)"><text x="0" y="0" font-family="Virgil, Segoe UI Emoji" font-size="20px" fill="#1e1e1e" text-anchor="start" style="white-space: pre;" direction="ltr" dominant-baseline="text-before-edge">B</text></g><g transform="translate(10 316.8468189937089) rotate(0 6.4375 12.5)"><text x="0" y="0" font-family="Virgil, Segoe UI Emoji" font-size="20px" fill="#1e1e1e" text-anchor="start" style="white-space: pre;" direction="ltr" dominant-baseline="text-before-edge">C</text></g><g transform="translate(478.40631838812374 168.46003657629672) rotate(0 7.802083492279053 12.5)"><text x="0" y="0" font-family="Virgil, Segoe UI Emoji" font-size="20px" fill="#1e1e1e" text-anchor="start" style="white-space: pre;" direction="ltr" dominant-baseline="text-before-edge">D</text></g><g transform="translate(262.493597294555 261.11403614705614) rotate(0 6.739583492279053 12.5)"><text x="0" y="0" font-family="Virgil, Segoe UI Emoji" font-size="20px" fill="#1e1e1e" text-anchor="start" style="white-space: pre;" direction="ltr" dominant-baseline="text-before-edge">E</text></g><g transform="translate(94.53256449645073 88.10565999089772) rotate(0 -4.869838587292918 5.72922186740351)" stroke="none"><path fill="#1e1e1e" d="M 2.66,0 Q 2.66,0 2.69,0.98 2.72,1.97 2.55,3.67 2.37,5.36 1.75,6.66 1.13,7.96 -0.37,9.79 -1.89,11.63 -2.88,12.13 -3.87,12.63 -6.37,13.57 -8.88,14.51 -9.39,14.56 -9.90,14.62 -10.40,14.51 -10.90,14.40 -11.34,14.14 -11.78,13.88 -12.12,13.49 -12.45,13.09 -12.64,12.62 -12.83,12.14 -12.86,11.63 -12.89,11.12 -12.75,10.62 -12.62,10.13 -12.33,9.70 -12.04,9.28 -11.63,8.97 -11.23,8.65 -10.74,8.49 -10.25,8.32 -9.74,8.32 -9.23,8.32 -8.74,8.49 -8.25,8.65 -7.85,8.96 -7.44,9.27 -7.15,9.69 -6.86,10.12 -6.72,10.61 -6.58,11.10 -6.61,11.62 -6.64,12.13 -6.82,12.61 -7.01,13.08 -7.34,13.47 -7.68,13.87 -8.12,14.13 -8.55,14.40 -9.06,14.51 -9.56,14.62 -10.07,14.57 -10.58,14.51 -11.04,14.30 -11.51,14.08 -11.88,13.73 -12.26,13.38 -12.50,12.93 -12.74,12.47 -12.82,11.97 -12.91,11.46 -12.82,10.95 -12.74,10.45 -12.50,9.99 -12.26,9.54 -11.89,9.19 -11.52,8.83 -11.05,8.62 -10.59,8.40 -10.59,8.40 -10.59,8.40 -9.26,7.94 -7.94,7.49 -6.52,7.14 -5.10,6.80 -4.28,5.56 -3.47,4.32 -3.09,3.15 -2.72,1.97 -2.69,0.98 -2.66,0 -2.62,-0.31 -2.58,-0.63 -2.47,-0.93 -2.36,-1.23 -2.17,-1.50 -1.99,-1.76 -1.75,-1.98 -1.51,-2.19 -1.23,-2.34 -0.94,-2.49 -0.63,-2.57 -0.32,-2.64 0.00,-2.64 0.32,-2.64 0.63,-2.57 0.94,-2.49 1.23,-2.34 1.51,-2.19 1.75,-1.98 1.99,-1.76 2.17,-1.50 2.36,-1.23 2.47,-0.93 2.58,-0.63 2.62,-0.31 2.66,0.00 2.66,0.00 L 2.66,0 Z"></path></g><g transform="translate(73.33444358705788 108.73085871355028) rotate(0 9.453216081215771 1.4323054668508632)" stroke="none"><path fill="#1e1e1e" d="M 1.48,-2.22 Q 1.48,-2.22 2.46,-1.57 3.45,-0.93 4.89,-0.79 6.33,-0.66 8.26,-0.48 10.20,-0.30 11.28,-0.26 12.36,-0.23 13.40,-0.79 14.44,-1.35 16.14,-2.18 17.83,-3.01 18.34,-3.11 18.85,-3.20 19.36,-3.12 19.88,-3.04 20.34,-2.81 20.80,-2.57 21.16,-2.20 21.52,-1.83 21.75,-1.37 21.97,-0.90 22.04,-0.38 22.10,0.12 22.00,0.63 21.89,1.13 21.63,1.58 21.37,2.03 20.98,2.37 20.59,2.71 20.12,2.91 19.64,3.11 19.12,3.15 18.60,3.18 18.10,3.05 17.60,2.92 17.17,2.64 16.73,2.35 16.42,1.95 16.10,1.54 15.92,1.05 15.75,0.56 15.74,0.04 15.73,-0.47 15.89,-0.96 16.05,-1.45 16.36,-1.87 16.66,-2.29 17.09,-2.58 17.51,-2.88 18.01,-3.03 18.51,-3.17 19.02,-3.15 19.54,-3.13 20.03,-2.95 20.51,-2.76 20.91,-2.43 21.31,-2.10 21.58,-1.66 21.86,-1.22 21.98,-0.72 22.10,-0.22 22.05,0.29 22.00,0.81 21.79,1.28 21.58,1.75 21.23,2.13 20.88,2.51 20.42,2.76 19.97,3.01 19.97,3.01 19.97,3.01 17.86,3.99 15.75,4.97 13.94,5.42 12.14,5.87 10.58,5.69 9.02,5.51 7.51,5.30 6.00,5.09 4.25,4.78 2.50,4.47 1.50,4.01 0.49,3.56 -0.49,2.89 -1.48,2.22 -1.72,2.01 -1.96,1.80 -2.15,1.54 -2.34,1.27 -2.46,0.97 -2.58,0.68 -2.62,0.36 -2.66,0.04 -2.63,-0.27 -2.60,-0.59 -2.49,-0.89 -2.38,-1.20 -2.20,-1.47 -2.02,-1.73 -1.78,-1.95 -1.55,-2.17 -1.26,-2.32 -0.98,-2.48 -0.67,-2.56 -0.36,-2.64 -0.04,-2.65 0.27,-2.65 0.59,-2.58 0.90,-2.51 1.19,-2.36 1.48,-2.22 1.48,-2.22 L 1.48,-2.22 Z"></path></g><g transform="translate(296.2011742290533 35.39681881078576) rotate(0 4.296916400552618 4.29691640055259)" stroke="none"><path fill="#1e1e1e" d="M 2.59,-0.32 Q 2.59,-0.32 2.75,0.98 2.91,2.28 3.64,3.23 4.36,4.18 5.41,4.85 6.45,5.53 7.60,5.49 8.74,5.45 9.24,5.56 9.73,5.67 10.17,5.93 10.61,6.19 10.94,6.57 11.27,6.96 11.46,7.43 11.65,7.90 11.68,8.40 11.71,8.91 11.58,9.40 11.44,9.89 11.16,10.31 10.88,10.73 10.48,11.04 10.07,11.35 9.59,11.52 9.11,11.68 8.61,11.69 8.10,11.69 7.62,11.53 7.13,11.37 6.73,11.07 6.32,10.76 6.03,10.34 5.75,9.92 5.61,9.43 5.47,8.95 5.50,8.44 5.52,7.93 5.71,7.46 5.89,6.99 6.22,6.60 6.54,6.21 6.98,5.94 7.41,5.68 7.91,5.57 8.40,5.46 8.91,5.51 9.41,5.56 9.87,5.77 10.34,5.98 10.71,6.33 11.08,6.68 11.32,7.12 11.56,7.57 11.64,8.07 11.73,8.57 11.65,9.07 11.57,9.57 11.33,10.02 11.10,10.47 10.73,10.83 10.36,11.18 9.90,11.39 9.44,11.61 8.94,11.67 8.44,11.72 8.44,11.72 8.44,11.72 6.53,11.34 4.62,10.96 3.58,10.21 2.54,9.46 1.37,8.79 0.20,8.12 -0.39,7.10 -0.98,6.08 -1.62,4.53 -2.25,2.98 -2.42,1.65 -2.59,0.32 -2.59,0.00 -2.59,-0.30 -2.51,-0.61 -2.44,-0.91 -2.29,-1.19 -2.15,-1.47 -1.94,-1.71 -1.73,-1.94 -1.48,-2.12 -1.22,-2.30 -0.92,-2.42 -0.63,-2.53 -0.32,-2.57 -0.00,-2.61 0.30,-2.57 0.61,-2.53 0.91,-2.42 1.20,-2.31 1.46,-2.13 1.72,-1.96 1.93,-1.72 2.14,-1.49 2.29,-1.21 2.43,-0.93 2.51,-0.62 2.59,-0.32 2.59,-0.32 L 2.59,-0.32 Z"></path></g><g transform="translate(286.4614970544674 39.98019630470856) rotate(0 8.307371707735001 8.02091061436488)" stroke="none"><path fill="#1e1e1e" d="M 2.02,-1.69 Q 2.02,-1.69 2.86,-0.69 3.69,0.29 4.24,1.28 4.78,2.27 5.69,3.16 6.61,4.05 7.70,5.05 8.79,6.06 9.58,7.49 10.37,8.92 11.35,9.69 12.33,10.47 13.35,11.20 14.36,11.92 15.46,12.67 16.57,13.42 17.95,13.07 19.33,12.72 19.55,13.08 19.77,13.43 19.90,13.83 20.03,14.23 20.06,14.65 20.08,15.07 20.01,15.48 19.94,15.89 19.77,16.28 19.60,16.66 19.35,16.99 19.09,17.33 18.77,17.59 18.44,17.85 18.06,18.03 17.68,18.20 17.27,18.28 16.85,18.36 16.43,18.34 16.02,18.32 15.61,18.20 15.21,18.08 14.85,17.86 14.49,17.65 14.19,17.36 13.89,17.06 13.89,14.89 13.90,12.71 14.32,12.33 14.74,11.96 15.25,11.74 15.77,11.51 16.33,11.47 16.89,11.42 17.44,11.56 17.99,11.69 18.46,12.00 18.93,12.30 19.29,12.74 19.64,13.18 19.83,13.71 20.03,14.24 20.04,14.80 20.06,15.36 19.89,15.90 19.73,16.44 19.40,16.89 19.07,17.35 18.61,17.68 18.15,18.01 17.62,18.17 17.08,18.34 16.52,18.32 15.95,18.31 15.42,18.11 14.90,17.92 14.46,17.57 14.02,17.21 13.72,16.74 13.41,16.27 13.28,15.72 13.14,15.17 13.19,14.61 13.23,14.05 13.46,13.53 13.68,13.02 14.05,12.60 14.43,12.18 14.92,11.90 15.41,11.62 15.96,11.52 16.52,11.41 17.07,11.49 17.63,11.57 18.14,11.82 18.64,12.07 19.04,12.46 19.44,12.86 19.69,13.37 19.94,13.87 20.01,14.43 20.09,14.99 19.98,15.54 19.88,16.09 19.60,14.41 19.33,12.72 19.55,13.07 19.77,13.43 19.90,13.83 20.03,14.23 20.06,14.65 20.08,15.07 20.01,15.48 19.94,15.89 19.77,16.28 19.61,16.66 19.35,16.99 19.09,17.33 18.77,17.59 18.44,17.85 18.06,18.03 17.68,18.20 17.27,18.28 16.85,18.36 16.43,18.34 16.02,18.32 15.61,18.20 15.21,18.08 14.85,17.86 14.49,17.65 14.19,17.36 13.89,17.06 12.50,17.32 11.10,17.57 10.04,16.85 8.98,16.13 7.91,15.20 6.84,14.27 5.94,13.21 5.04,12.15 4.50,11.10 3.97,10.06 3.20,9.14 2.43,8.22 1.71,7.14 0.98,6.07 0.29,4.86 -0.40,3.65 -1.21,2.67 -2.02,1.69 -2.20,1.42 -2.37,1.15 -2.47,0.85 -2.58,0.55 -2.61,0.23 -2.63,-0.07 -2.59,-0.39 -2.54,-0.70 -2.42,-1.00 -2.30,-1.29 -2.11,-1.55 -1.92,-1.81 -1.67,-2.01 -1.43,-2.21 -1.14,-2.35 -0.86,-2.49 -0.54,-2.56 -0.23,-2.62 0.07,-2.62 0.39,-2.61 0.70,-2.52 1.01,-2.43 1.28,-2.28 1.56,-2.12 1.79,-1.90 2.02,-1.69 2.02,-1.69 L 2.02,-1.69 Z"></path></g><g transform="translate(309.95130671082165 49.14695129255409) rotate(0 6.0156829607735745 -2.2916887469613982)" stroke="none"><path fill="#1e1e1e" d="M 0,-2.66 Q 0,-2.66 1.15,-2.68 2.30,-2.69 3.40,-2.76 4.50,-2.83 5.71,-3.40 6.93,-3.97 7.98,-4.62 9.04,-5.28 9.23,-5.74 9.42,-6.19 9.75,-6.57 10.08,-6.94 10.50,-7.19 10.93,-7.44 11.42,-7.54 11.90,-7.64 12.40,-7.58 12.89,-7.52 13.33,-7.30 13.78,-7.09 14.14,-6.74 14.49,-6.40 14.72,-5.96 14.94,-5.52 15.02,-5.03 15.09,-4.54 15.00,-4.05 14.92,-3.56 14.68,-3.12 14.44,-2.69 14.07,-2.35 13.71,-2.02 13.26,-1.82 12.80,-1.61 12.31,-1.57 11.82,-1.52 11.34,-1.63 10.85,-1.75 10.43,-2.01 10.01,-2.27 9.69,-2.65 9.38,-3.04 9.20,-3.50 9.03,-3.96 9.01,-4.46 8.99,-4.95 9.12,-5.43 9.26,-5.90 9.55,-6.31 9.83,-6.72 10.23,-7.01 10.63,-7.31 11.10,-7.46 11.57,-7.61 12.07,-7.60 12.56,-7.59 13.03,-7.43 13.50,-7.26 13.89,-6.96 14.28,-6.65 14.55,-6.24 14.83,-5.83 14.95,-5.35 15.08,-4.87 15.04,-4.37 15.01,-3.88 15.01,-3.88 15.01,-3.88 12.93,-1.45 10.85,0.97 9.52,1.49 8.20,2.01 6.35,2.42 4.50,2.83 3.40,2.76 2.30,2.69 1.15,2.68 0,2.66 -0.31,2.62 -0.63,2.58 -0.93,2.47 -1.23,2.35 -1.50,2.17 -1.76,1.99 -1.97,1.75 -2.19,1.51 -2.34,1.22 -2.49,0.94 -2.56,0.63 -2.64,0.32 -2.64,-0.00 -2.64,-0.32 -2.56,-0.63 -2.49,-0.94 -2.34,-1.22 -2.19,-1.51 -1.97,-1.75 -1.76,-1.99 -1.50,-2.17 -1.23,-2.35 -0.93,-2.47 -0.63,-2.58 -0.31,-2.62 0.00,-2.66 0.00,-2.66 L 0,-2.66 Z"></path></g><g transform="translate(306.5137735903795 62.324161587582125) rotate(0 10.599060454696428 -5.156299680663153)" stroke="none"><path fill="#1e1e1e" d="M 0,-2.61 Q 0,-2.61 1.64,-2.56 3.29,-2.51 4.48,-2.53 5.68,-2.56 7.37,-2.89 9.07,-3.22 10.61,-3.74 12.16,-4.26 13.41,-5.32 14.66,-6.37 15.70,-6.64 16.73,-6.92 17.33,-8.84 17.93,-10.77 18.09,-11.27 18.25,-11.78 18.56,-12.21 18.87,-12.65 19.31,-12.95 19.74,-13.26 20.25,-13.42 20.76,-13.57 21.29,-13.56 21.83,-13.54 22.33,-13.35 22.83,-13.17 23.24,-12.83 23.65,-12.50 23.94,-12.05 24.22,-11.60 24.35,-11.08 24.48,-10.56 24.43,-10.03 24.39,-9.50 24.17,-9.01 23.96,-8.52 23.60,-8.13 23.25,-7.73 22.78,-7.47 22.32,-7.21 21.79,-7.11 21.27,-7.02 20.74,-7.09 20.21,-7.16 19.74,-7.40 19.26,-7.64 18.89,-8.02 18.51,-8.40 18.28,-8.88 18.04,-9.35 17.97,-9.88 17.90,-10.41 18.00,-10.93 18.11,-11.46 18.37,-11.92 18.64,-12.38 19.03,-12.74 19.43,-13.09 19.92,-13.30 20.41,-13.51 20.94,-13.55 21.47,-13.59 21.99,-13.46 22.51,-13.33 22.95,-13.04 23.40,-12.75 23.73,-12.33 24.07,-11.92 24.25,-11.42 24.43,-10.91 24.44,-10.38 24.45,-9.85 24.45,-9.85 24.45,-9.85 23.80,-8.12 23.15,-6.38 22.48,-4.99 21.81,-3.60 20.95,-2.88 20.09,-2.15 18.71,-1.59 17.33,-1.02 16.42,-0.44 15.52,0.14 14.44,0.67 13.36,1.21 12.00,1.55 10.63,1.90 8.15,2.23 5.68,2.56 4.48,2.53 3.29,2.51 1.64,2.56 0,2.61 -0.31,2.57 -0.62,2.53 -0.91,2.42 -1.21,2.31 -1.47,2.13 -1.73,1.95 -1.94,1.72 -2.15,1.48 -2.29,1.20 -2.44,0.92 -2.51,0.62 -2.59,0.31 -2.59,-0.00 -2.59,-0.31 -2.51,-0.62 -2.44,-0.92 -2.29,-1.20 -2.15,-1.48 -1.94,-1.72 -1.73,-1.95 -1.47,-2.13 -1.21,-2.31 -0.91,-2.42 -0.62,-2.53 -0.31,-2.57 0.00,-2.61 0.00,-2.61 L 0,-2.61 Z"></path></g></svg>